<svg width="40" height="40" viewBox="0 0 40 40" fill="none" xmlns="http://www.w3.org/2000/svg">
<rect width="40" height="40" rx="20" fill="#E53E6A"/>
<path d="M26.436 28.937H13.562C12.899 28.937 12.2631 28.6736 11.7942 28.2048C11.3254 27.7359 11.062 27.1 11.062 26.437V13.563C11.062 12.8999 11.3254 12.2641 11.7942 11.7952C12.2631 11.3264 12.899 11.063 13.562 11.063H26.436C27.0991 11.063 27.7349 11.3264 28.2038 11.7952C28.6726 12.2641 28.936 12.8999 28.936 13.563V26.437C28.936 27.1 28.6726 27.7359 28.2038 28.2048C27.7349 28.6736 27.0991 28.937 26.436 28.937ZM13.562 12.063C13.1642 12.063 12.7827 12.221 12.5014 12.5023C12.22 12.7836 12.062 13.1652 12.062 13.563V26.437C12.062 26.8348 12.22 27.2163 12.5014 27.4976C12.7827 27.779 13.1642 27.937 13.562 27.937H26.436C26.8338 27.937 27.2154 27.779 27.4967 27.4976C27.778 27.2163 27.936 26.8348 27.936 26.437V13.563C27.936 13.1652 27.778 12.7836 27.4967 12.5023C27.2154 12.221 26.8338 12.063 26.436 12.063H13.562Z" fill="white"/>
<path d="M14.544 16.283C14.4119 16.2807 14.2857 16.2281 14.191 16.136C14.0973 16.0422 14.0446 15.9151 14.0446 15.7825C14.0446 15.6499 14.0973 15.5227 14.191 15.429C14.2854 15.3366 14.4119 15.2843 14.544 15.283H15.55C15.682 15.2847 15.8084 15.3369 15.903 15.429C15.9496 15.4754 15.9866 15.5306 16.0118 15.5913C16.037 15.6521 16.05 15.7172 16.05 15.783C16.05 15.9156 15.9973 16.0428 15.9036 16.1365C15.8098 16.2303 15.6826 16.283 15.55 16.283H14.544ZM14.544 20.5C14.4122 20.4976 14.2861 20.4454 14.191 20.354C14.1445 20.3075 14.1075 20.2524 14.0823 20.1916C14.0571 20.1309 14.0441 20.0657 14.0441 20C14.0441 19.9342 14.0571 19.8691 14.0823 19.8083C14.1075 19.7476 14.1445 19.6924 14.191 19.646C14.2857 19.5539 14.412 19.5017 14.544 19.5H15.55C15.6819 19.5022 15.8081 19.5544 15.903 19.646C15.9496 19.6924 15.9865 19.7476 16.0117 19.8083C16.0369 19.8691 16.0499 19.9342 16.0499 20C16.0499 20.0657 16.0369 20.1309 16.0117 20.1916C15.9865 20.2524 15.9496 20.3075 15.903 20.354C15.8084 20.446 15.682 20.4983 15.55 20.5H14.544ZM14.544 24.72C14.4119 24.7177 14.2857 24.6651 14.191 24.573C14.0973 24.4792 14.0446 24.3521 14.0446 24.2195C14.0446 24.0869 14.0973 23.9597 14.191 23.866C14.2857 23.7739 14.412 23.7217 14.544 23.72H15.55C15.682 23.7217 15.8084 23.7739 15.903 23.866C15.9496 23.9124 15.9866 23.9676 16.0118 24.0283C16.037 24.0891 16.05 24.1542 16.05 24.22C16.05 24.3526 15.9973 24.4798 15.9036 24.5735C15.8098 24.6673 15.6826 24.72 15.55 24.72H14.544ZM18.554 16.281C18.4214 16.281 18.2942 16.2283 18.2005 16.1345C18.1067 16.0408 18.054 15.9136 18.054 15.781C18.054 15.6484 18.1067 15.5212 18.2005 15.4274C18.2942 15.3337 18.4214 15.281 18.554 15.281H25.454C25.5866 15.281 25.7138 15.3337 25.8076 15.4274C25.9013 15.5212 25.954 15.6484 25.954 15.781C25.954 15.9136 25.9013 16.0408 25.8076 16.1345C25.7138 16.2283 25.5866 16.281 25.454 16.281H18.554ZM18.554 20.5C18.4214 20.5 18.2942 20.4473 18.2005 20.3535C18.1067 20.2598 18.054 20.1326 18.054 20C18.054 19.8674 18.1067 19.7402 18.2005 19.6464C18.2942 19.5527 18.4214 19.5 18.554 19.5H25.454C25.5866 19.5 25.7138 19.5527 25.8076 19.6464C25.9013 19.7402 25.954 19.8674 25.954 20C25.954 20.1326 25.9013 20.2598 25.8076 20.3535C25.7138 20.4473 25.5866 20.5 25.454 20.5H18.554ZM18.554 24.718C18.4214 24.718 18.2942 24.6653 18.2005 24.5715C18.1067 24.4778 18.054 24.3506 18.054 24.218C18.054 24.0854 18.1067 23.9582 18.2005 23.8644C18.2942 23.7707 18.4214 23.718 18.554 23.718H25.454C25.5866 23.718 25.7138 23.7707 25.8076 23.8644C25.9013 23.9582 25.954 24.0854 25.954 24.218C25.954 24.3506 25.9013 24.4778 25.8076 24.5715C25.7138 24.6653 25.5866 24.718 25.454 24.718H18.554Z" fill="white"/>
</svg>
