<svg width="40" height="40" viewBox="0 0 40 40" fill="none" xmlns="http://www.w3.org/2000/svg">
<rect width="40" height="40" rx="20" fill="#E53E6A"/>
<path d="M15 15V11.6C15 11.4409 15.0632 11.2883 15.1757 11.1757C15.2883 11.0632 15.4409 11 15.6 11H24.4C24.4788 11 24.5568 11.0155 24.6296 11.0457C24.7024 11.0758 24.7685 11.12 24.8243 11.1757C24.88 11.2315 24.9242 11.2976 24.9543 11.3704C24.9845 11.4432 25 11.5212 25 11.6V15M18 11V15M20 11V15M27 28H13C12.4696 28 11.9609 27.7893 11.5858 27.4142C11.2107 27.0391 11 26.5304 11 26V17C11 16.4696 11.2107 15.9609 11.5858 15.5858C11.9609 15.2107 12.4696 15 13 15H27C27.5304 15 28.0391 15.2107 28.4142 15.5858C28.7893 15.9609 29 16.4696 29 17V26C29 26.5304 28.7893 27.0391 28.4142 27.4142C28.0391 27.7893 27.5304 28 27 28Z" stroke="white"/>
<path d="M24.5 22C24.3674 22 24.2402 21.9473 24.1464 21.8536C24.0527 21.7598 24 21.6326 24 21.5C24 21.3674 24.0527 21.2402 24.1464 21.1464C24.2402 21.0527 24.3674 21 24.5 21C24.6326 21 24.7598 21.0527 24.8536 21.1464C24.9473 21.2402 25 21.3674 25 21.5C25 21.6326 24.9473 21.7598 24.8536 21.8536C24.7598 21.9473 24.6326 22 24.5 22Z" fill="white" stroke="white" stroke-linecap="round" stroke-linejoin="round"/>
</svg>
