<svg width="150" height="44" viewBox="0 0 150 44" fill="none" xmlns="http://www.w3.org/2000/svg">
<g clip-path="url(#clip0_45_59)">
<path d="M148.349 38.8043C148.349 41.132 146.461 43.0203 144.133 43.0203H6.08838C3.75477 43.0203 1.86652 41.132 1.86652 38.8043V5.20163C1.86652 2.87396 3.76071 0.979767 6.08838 0.979767H144.127C146.461 0.979767 148.343 2.87396 148.343 5.20163L148.349 38.8043Z" fill="white"/>
<path d="M144.133 44H6.08837C3.22035 44 0.886749 41.6664 0.886749 38.8043V5.20162C0.886749 2.3336 3.22035 0 6.08837 0H144.127C146.989 0 149.329 2.3336 149.329 5.20162V38.8043C149.335 41.6664 146.995 44 144.133 44Z" fill="#A6A6A6"/>
<path d="M148.349 38.8043C148.349 41.132 146.461 43.0203 144.133 43.0203H6.08838C3.75477 43.0203 1.86652 41.132 1.86652 38.8043V5.20163C1.86652 2.87396 3.76071 0.979767 6.08838 0.979767H144.127C146.461 0.979767 148.343 2.87396 148.343 5.20163L148.349 38.8043Z" fill="black"/>
<path d="M144.133 0H70.1942L99.1534 44H144.133C146.995 44 149.335 41.6723 149.335 38.8043V5.20162C149.335 2.3336 146.995 0 144.133 0Z" fill="url(#paint0_linear_45_59)"/>
<path d="M59.9275 34.6656H57.4276L56.0619 30.3665H51.3056L49.9993 34.6656H47.5648L52.2795 20.0227H55.1891L59.9275 34.6656ZM55.6522 28.5555L54.4171 24.7315C54.2865 24.3396 54.0371 23.4192 53.6808 21.9703H53.6393C53.4967 22.5938 53.2592 23.5142 52.9445 24.7315L51.7154 28.5555H55.6522ZM72.029 29.2562C72.029 31.0494 71.5421 32.4686 70.5683 33.5136C69.6954 34.44 68.6088 34.9031 67.3143 34.9031C65.9189 34.9031 64.9094 34.4043 64.2978 33.4068V38.9468H61.9523V27.5757C61.9523 26.4475 61.9227 25.2896 61.8633 24.108H63.9237L64.0544 25.7825H64.0959C64.8797 24.5236 66.0673 23.8883 67.6587 23.8883C68.9056 23.8883 69.9448 24.3811 70.7761 25.3668C71.6133 26.3525 72.029 27.647 72.029 29.2562ZM69.642 29.3393C69.642 28.312 69.4104 27.4629 68.9472 26.7979C68.4425 26.1031 67.7596 25.7587 66.9046 25.7587C66.3286 25.7587 65.8001 25.9547 65.331 26.3347C64.8619 26.7207 64.5532 27.2254 64.4106 27.8429C64.3394 28.1339 64.3038 28.3714 64.3038 28.5555V30.319C64.3038 31.085 64.5413 31.7323 65.0104 32.2667C65.4795 32.7952 66.0911 33.0624 66.8452 33.0624C67.7299 33.0624 68.4187 32.718 68.9056 32.041C69.3926 31.3522 69.642 30.4556 69.642 29.3393ZM84.172 29.2562C84.172 31.0494 83.6851 32.4686 82.7113 33.5136C81.8384 34.44 80.7518 34.9031 79.4573 34.9031C78.0619 34.9031 77.0525 34.4043 76.4409 33.4068V38.9468H74.0954V27.5757C74.0954 26.4475 74.0657 25.2896 74.0063 24.108H76.0668L76.1974 25.7825H76.239C77.0228 24.5236 78.2044 23.8883 79.8017 23.8883C81.0487 23.8883 82.0878 24.3811 82.9191 25.3668C83.7564 26.3525 84.172 27.647 84.172 29.2562ZM81.7791 29.3393C81.7791 28.312 81.5475 27.4629 81.0843 26.7979C80.5796 26.1031 79.8967 25.7587 79.0417 25.7587C78.4657 25.7587 77.9372 25.9547 77.4622 26.3347C76.9931 26.7207 76.6843 27.2254 76.5418 27.8429C76.4706 28.1339 76.429 28.3714 76.429 28.5555V30.319C76.429 31.085 76.6665 31.7323 77.1356 32.2667C77.6047 32.7952 78.2163 33.0624 78.9704 33.0624C79.8552 33.0624 80.544 32.718 81.0309 32.041C81.5356 31.3522 81.7791 30.4556 81.7791 29.3393ZM97.7521 30.5566C97.7521 31.8035 97.3186 32.8189 96.4517 33.5968C95.5016 34.4518 94.1715 34.8794 92.4614 34.8794C90.8878 34.8794 89.6231 34.5765 88.673 33.9649L89.2133 32.0113C90.2406 32.623 91.3747 32.9258 92.6039 32.9258C93.4886 32.9258 94.1774 32.7239 94.6644 32.3261C95.1572 31.9282 95.4066 31.3938 95.4066 30.7288C95.4066 30.135 95.1988 29.6362 94.795 29.2265C94.3912 28.8227 93.7202 28.4427 92.7761 28.0983C90.2109 27.1423 88.9283 25.7409 88.9283 23.9061C88.9283 22.7066 89.3796 21.7209 90.2881 20.9549C91.1907 20.1889 92.3901 19.803 93.8865 19.803C95.2166 19.803 96.327 20.0346 97.2117 20.4977L96.6239 22.4097C95.7926 21.9584 94.8603 21.7387 93.8093 21.7387C92.9839 21.7387 92.3307 21.9406 91.8676 22.3444C91.4757 22.7066 91.2797 23.146 91.2797 23.6686C91.2797 24.2445 91.5054 24.7255 91.9567 25.0996C92.3486 25.444 93.0552 25.824 94.0824 26.2278C95.3413 26.7385 96.2676 27.3263 96.8614 28.0092C97.4492 28.698 97.7521 29.5471 97.7521 30.5566ZM105.525 25.8656H102.942V30.99C102.942 32.2964 103.399 32.9436 104.313 32.9436C104.735 32.9436 105.079 32.908 105.353 32.8367L105.418 34.6181C104.955 34.7903 104.349 34.8794 103.595 34.8794C102.669 34.8794 101.944 34.5943 101.422 34.0302C100.899 33.4661 100.638 32.5161 100.638 31.186V25.8656H99.1V24.108H100.638V22.1722L102.942 21.4775V24.108H105.525V25.8656ZM117.169 29.2977C117.169 30.9188 116.706 32.2548 115.78 33.2939C114.812 34.3687 113.523 34.9031 111.914 34.9031C110.364 34.9031 109.129 34.3865 108.209 33.3652C107.288 32.3379 106.831 31.0375 106.831 29.4759C106.831 27.837 107.306 26.501 108.256 25.4559C109.206 24.4108 110.483 23.8942 112.092 23.8942C113.642 23.8942 114.883 24.4108 115.827 25.4381C116.718 26.4297 117.169 27.7182 117.169 29.2977ZM114.735 29.3512C114.735 28.3833 114.527 27.552 114.105 26.8572C113.612 26.02 112.912 25.5984 111.997 25.5984C111.059 25.5984 110.335 26.02 109.848 26.8572C109.426 27.552 109.218 28.3952 109.218 29.3927C109.218 30.3606 109.426 31.1919 109.848 31.8867C110.352 32.7239 111.065 33.1455 111.979 33.1455C112.876 33.1455 113.577 32.718 114.087 31.8688C114.521 31.1563 114.735 30.319 114.735 29.3512ZM124.793 26.1684C124.562 26.1269 124.312 26.1031 124.051 26.1031C123.226 26.1031 122.59 26.4119 122.139 27.0354C121.747 27.5876 121.551 28.2823 121.551 29.1196V34.6597H119.206V27.4273C119.206 26.21 119.182 25.0996 119.14 24.102H121.183L121.266 26.1209H121.332C121.581 25.4262 121.967 24.868 122.507 24.4464C123.03 24.0664 123.594 23.8823 124.206 23.8823C124.419 23.8823 124.615 23.9001 124.793 23.9239V26.1684ZM135.286 28.8821C135.286 29.3037 135.256 29.654 135.203 29.9449H128.166C128.19 30.99 128.534 31.7857 129.187 32.3379C129.781 32.8308 130.547 33.0742 131.491 33.0742C132.53 33.0742 133.486 32.908 134.342 32.5754L134.71 34.2024C133.712 34.6359 132.53 34.8556 131.171 34.8556C129.532 34.8556 128.249 34.3746 127.311 33.4127C126.379 32.4508 125.91 31.1563 125.91 29.5352C125.91 27.9439 126.343 26.6197 127.216 25.5628C128.125 24.4346 129.36 23.8705 130.909 23.8705C132.43 23.8705 133.581 24.4346 134.365 25.5628C134.971 26.4594 135.286 27.5698 135.286 28.8821ZM133.047 28.2764C133.065 27.5817 132.911 26.9819 132.59 26.4713C132.186 25.8181 131.557 25.4915 130.719 25.4915C129.953 25.4915 129.33 25.8122 128.855 26.4475C128.463 26.9522 128.231 27.5638 128.16 28.2705L133.047 28.2764Z" fill="white"/>
<path d="M54.5181 14.7795H53.2889L52.6179 12.6656H50.2784L49.6371 14.7795H48.4436L50.7594 7.58274H52.1904L54.5181 14.7795ZM52.416 11.7808L51.8104 9.90446C51.7451 9.71445 51.6263 9.26317 51.4482 8.55062H51.4244C51.3472 8.85939 51.2403 9.31067 51.08 9.90446L50.4803 11.7808H52.416ZM60.3135 9.58976L58.348 14.7795H57.2258L55.3256 9.58976H56.5666L57.4514 12.3331C57.5998 12.7903 57.7305 13.2297 57.8255 13.6454H57.8552C57.9383 13.2713 58.0689 12.8319 58.2293 12.3331L59.1021 9.58976H60.3135ZM64.4938 14.7795L64.4106 14.1798H64.381C64.0306 14.6607 63.514 14.8923 62.8668 14.8923C61.9405 14.8923 61.2754 14.2391 61.2754 13.3663C61.2754 12.0837 62.3858 11.4246 64.3097 11.4246V11.3296C64.3097 10.6467 63.9475 10.3023 63.229 10.3023C62.7183 10.3023 62.267 10.4329 61.8751 10.6883L61.6436 9.92822C62.1245 9.63132 62.7243 9.47693 63.4249 9.47693C64.7788 9.47693 65.4676 10.1895 65.4676 11.6205V13.5325C65.4676 14.0551 65.4913 14.4648 65.5448 14.7736L64.4938 14.7795ZM64.3334 12.1965C63.0509 12.1965 62.4096 12.5053 62.4096 13.2416C62.4096 13.7879 62.7421 14.0551 63.1993 14.0551C63.7872 14.0551 64.3334 13.6097 64.3334 12.9981V12.1965ZM68.0268 8.73469C67.6409 8.73469 67.344 8.4378 67.344 8.03996C67.344 7.64212 67.6527 7.3571 68.0506 7.3571C68.4484 7.3571 68.7631 7.64805 68.7572 8.03996C68.7513 8.46155 68.4544 8.73469 68.0268 8.73469ZM68.6266 14.7795H67.4746V9.58976H68.6266V14.7795ZM71.8271 14.7795H70.6751V7.20865H71.8271V14.7795ZM76.7259 14.7795L76.6428 14.1798H76.6131C76.2627 14.6607 75.7461 14.8923 75.0989 14.8923C74.1726 14.8923 73.5075 14.2391 73.5075 13.3663C73.5075 12.0837 74.6179 11.4246 76.5418 11.4246V11.3296C76.5418 10.6467 76.1796 10.3023 75.4611 10.3023C74.9505 10.3023 74.4992 10.4329 74.1073 10.6883L73.8697 9.92822C74.3507 9.63132 74.9504 9.47693 75.6511 9.47693C77.005 9.47693 77.6938 10.1895 77.6938 11.6205V13.5325C77.6938 14.0551 77.7175 14.4648 77.765 14.7736L76.7259 14.7795ZM76.5656 12.1965C75.283 12.1965 74.6417 12.5053 74.6417 13.2416C74.6417 13.7879 74.9742 14.0551 75.4314 14.0551C76.0193 14.0551 76.5656 13.6097 76.5656 12.9981V12.1965ZM82.361 14.8983C81.6247 14.8983 81.0784 14.5895 80.728 13.9779H80.7043L80.639 14.7795H79.6592C79.6889 14.3638 79.7008 13.8947 79.7008 13.3841V7.20865H80.8527V10.3498H80.8765C81.2209 9.77383 81.7731 9.48287 82.5332 9.48287C83.7801 9.48287 84.659 10.5517 84.659 12.1074C84.653 13.7225 83.6851 14.8983 82.361 14.8983ZM82.1235 10.3914C81.4584 10.3914 80.8527 10.9674 80.8527 11.769V12.6775C80.8527 13.39 81.399 13.9779 82.1056 13.9779C82.9666 13.9779 83.4832 13.2713 83.4832 12.1549C83.4832 11.1099 82.9488 10.3914 82.1235 10.3914ZM87.5151 14.7795H86.3631V7.20865H87.5151V14.7795ZM93.7915 12.4637H90.3297C90.3534 13.4435 91.0007 14.0016 91.9626 14.0016C92.4733 14.0016 92.9424 13.9185 93.358 13.7582L93.5361 14.5598C93.0433 14.7736 92.4673 14.8804 91.7963 14.8804C90.1753 14.8804 89.2133 13.8532 89.2133 12.2678C89.2133 10.6764 90.199 9.48287 91.6657 9.48287C92.9899 9.48287 93.8212 10.4626 93.8212 11.9471C93.833 12.1431 93.8212 12.3271 93.7915 12.4637ZM92.7345 11.6443C92.7345 10.8427 92.3307 10.2786 91.5885 10.2786C90.9235 10.2786 90.4069 10.8545 90.3297 11.6443H92.7345ZM100.78 14.8983C99.2662 14.8983 98.2805 13.7641 98.2805 12.2262C98.2805 10.623 99.284 9.48287 100.864 9.48287C102.354 9.48287 103.363 10.5636 103.363 12.1431C103.363 13.7641 102.324 14.8983 100.78 14.8983ZM100.822 10.3261C99.9907 10.3261 99.4562 11.1039 99.4562 12.1965C99.4562 13.2653 100.003 14.0432 100.81 14.0432C101.624 14.0432 102.164 13.2119 102.164 12.1728C102.164 11.1158 101.635 10.3261 100.822 10.3261ZM109.563 14.7795H108.411V11.7987C108.411 10.8783 108.06 10.4211 107.366 10.4211C106.683 10.4211 106.214 11.0089 106.214 11.6918V14.7795H105.062V11.0742C105.062 10.617 105.05 10.1242 105.02 9.58976H106.035L106.089 10.3914H106.119C106.427 9.83915 107.057 9.48287 107.763 9.48287C108.85 9.48287 109.569 10.3142 109.569 11.674L109.563 14.7795ZM117.104 10.4567H115.833V12.9744C115.833 13.6157 116.059 13.9363 116.504 13.9363C116.706 13.9363 116.878 13.9126 117.015 13.8829L117.044 14.7557C116.819 14.8389 116.522 14.8864 116.148 14.8864C115.239 14.8864 114.699 14.3876 114.699 13.0694V10.4508H113.945V9.58382H114.699V8.63375L115.827 8.28935V9.58382H117.098V10.4567H117.104ZM123.214 14.7795H122.062V11.8224C122.062 10.8961 121.712 10.427 121.017 10.427C120.417 10.427 119.865 10.8308 119.865 11.6562V14.7854H118.713V7.20865H119.865V10.3261H119.889C120.251 9.76195 120.773 9.48287 121.45 9.48287C122.549 9.48287 123.22 10.3379 123.22 11.6918V14.7795H123.214ZM129.104 12.4637H125.642C125.666 13.4435 126.313 14.0016 127.275 14.0016C127.792 14.0016 128.255 13.9185 128.671 13.7582L128.849 14.5598C128.356 14.7736 127.78 14.8804 127.109 14.8804C125.488 14.8804 124.526 13.8532 124.526 12.2678C124.526 10.6764 125.512 9.48287 126.979 9.48287C128.303 9.48287 129.134 10.4626 129.134 11.9471C129.146 12.1431 129.134 12.3271 129.104 12.4637ZM128.047 11.6443C128.047 10.8427 127.644 10.2786 126.907 10.2786C126.242 10.2786 125.72 10.8545 125.648 11.6443H128.047Z" fill="white"/>
<path d="M34.0322 21.7684C34.0025 18.2235 36.9359 16.4955 37.0725 16.4184C35.4098 13.9957 32.8328 13.6632 31.9302 13.6394C29.7688 13.4138 27.6668 14.9339 26.5623 14.9339C25.4401 14.9339 23.7418 13.6632 21.9129 13.6988C19.5556 13.7344 17.3586 15.1001 16.1472 17.214C13.6533 21.5309 15.5119 27.8726 17.9048 31.3641C19.0984 33.0742 20.4938 34.9803 22.3227 34.915C24.11 34.8437 24.781 33.7749 26.9364 33.7749C29.0741 33.7749 29.7035 34.915 31.5621 34.8734C33.48 34.8437 34.6913 33.1574 35.8433 31.4354C37.2268 29.4758 37.7791 27.546 37.8028 27.451C37.7553 27.4213 34.0738 26.02 34.0322 21.7684ZM30.511 11.3414C31.473 10.136 32.1321 8.5031 31.948 6.84048C30.5585 6.89986 28.8128 7.80243 27.8152 8.97814C26.9305 10.0173 26.1348 11.7155 26.3426 13.3128C27.9043 13.4316 29.5075 12.5231 30.511 11.3414Z" fill="white"/>
</g>
<defs>
<linearGradient id="paint0_linear_45_59" x1="109.764" y1="44.1165" x2="109.764" y2="4.45842" gradientUnits="userSpaceOnUse">
<stop stop-color="#1A1A1A" stop-opacity="0.1"/>
<stop offset="0.123" stop-color="#212121" stop-opacity="0.151"/>
<stop offset="0.308" stop-color="#353535" stop-opacity="0.227"/>
<stop offset="0.532" stop-color="#575757" stop-opacity="0.318"/>
<stop offset="0.783" stop-color="#858585" stop-opacity="0.421"/>
<stop offset="1" stop-color="#B3B3B3" stop-opacity="0.51"/>
</linearGradient>
<clipPath id="clip0_45_59">
<rect width="148.448" height="44" fill="white" transform="translate(0.886749)"/>
</clipPath>
</defs>
</svg>
