<svg width="125" height="33" viewBox="0 0 125 33" fill="none" xmlns="http://www.w3.org/2000/svg">
<path d="M24.4041 10.1639C22.9949 9.06292 20.5582 9.04732 17.5553 11.1951L16.0113 12.296L12.3415 14.9236L9.62948 11.9511C9.30281 11.6047 8.85313 11.4006 8.37738 11.3828C7.90163 11.3649 7.43792 11.5348 7.08622 11.8557C6.73452 12.1765 6.52301 12.6228 6.49728 13.0982C6.47156 13.5736 6.63367 14.04 6.94869 14.397L10.7469 18.5585C11.0464 18.8863 11.4557 19.093 11.8972 19.1395C12.3388 19.186 12.7821 19.0691 13.1433 18.8108C13.1433 18.8108 20.5279 12.8392 20.5683 12.8089C21.5353 11.9832 22.4646 11.6355 23.7546 11.9428C24.7995 12.1924 25.6546 13.0529 25.6702 13.9098C25.9207 12.3602 25.4381 10.9731 24.4041 10.1639Z" fill="#E53E6A"/>
<path d="M23.8389 13.2672C23.5637 13.1754 22.5224 12.8525 21.248 13.9323L18.5874 16.081L20.2471 15.458C20.4017 15.4004 20.5698 15.3894 20.7306 15.4265C20.8913 15.4636 21.0377 15.547 21.1514 15.6665C21.2652 15.7861 21.3413 15.9363 21.3704 16.0988C21.3995 16.2612 21.3802 16.4285 21.315 16.5801C20.5309 18.3876 19.1892 19.8968 17.486 20.8872C15.7828 21.8776 13.8075 22.2973 11.8487 22.0848C7.60368 21.6343 4.16049 18.2132 3.68341 13.9699C3.46158 12.0773 3.83214 10.1624 4.74406 8.48917C5.65597 6.81592 7.06434 5.46664 8.77512 4.62725C10.4859 3.78786 12.4149 3.49967 14.2963 3.80239C16.1777 4.1051 17.9189 4.98382 19.2801 6.31748C19.4483 6.48917 19.6489 6.62575 19.8703 6.7193C20.0917 6.81286 20.3295 6.86152 20.5698 6.86247C20.8102 6.86343 21.0483 6.81665 21.2705 6.72485C21.4926 6.63305 21.6943 6.49806 21.8639 6.32772C22.0334 6.15737 22.1675 5.95504 22.2582 5.73249C22.349 5.50993 22.3947 5.27157 22.3926 5.03122C22.3905 4.79088 22.3408 4.55334 22.2462 4.33238C22.1516 4.11141 22.0141 3.91143 21.8416 3.74402C20.5221 2.44255 18.9358 1.44297 17.1923 0.814287C15.4489 0.185606 13.5897 -0.0571915 11.7432 0.102659C5.47061 0.631111 0.43288 5.7771 0.0273667 12.0616C-0.454296 19.5315 5.48529 25.7638 12.8543 25.7638C15.1448 25.7627 17.3934 25.1499 19.3676 23.9885C21.3419 22.8272 22.9701 21.1596 24.0839 19.1581C24.3131 18.7686 24.5125 18.3622 24.6802 17.9425C25.4518 15.8865 25.4215 13.7947 23.8389 13.2672Z" fill="#E53E6A"/>
<path d="M81.1072 2.92554C80.8322 2.92554 80.5685 3.03476 80.3741 3.22919C80.1797 3.42361 80.0705 3.6873 80.0705 3.96226V13.3083H67.1142V3.96226C67.1142 3.6873 67.005 3.42361 66.8106 3.22919C66.6161 3.03476 66.3524 2.92554 66.0775 2.92554C65.8025 2.92554 65.5388 3.03476 65.3444 3.22919C65.15 3.42361 65.0408 3.6873 65.0408 3.96226V24.7269C65.0408 25.0019 65.15 25.2656 65.3444 25.46C65.5388 25.6544 65.8025 25.7637 66.0775 25.7637C66.3524 25.7637 66.6161 25.6544 66.8106 25.46C67.005 25.2656 67.1142 25.0019 67.1142 24.7269V15.3818H80.0705V24.7269C80.0705 25.0019 80.1797 25.2656 80.3741 25.46C80.5685 25.6544 80.8322 25.7637 81.1072 25.7637C81.3821 25.7637 81.6458 25.6544 81.8403 25.46C82.0347 25.2656 82.1439 25.0019 82.1439 24.7269V3.96226C82.1439 3.6873 82.0347 3.42361 81.8403 3.22919C81.6458 3.03476 81.3821 2.92554 81.1072 2.92554Z" fill="#E53E6A"/>
<path d="M52.5414 7.17944C52.0601 7.17944 51.5985 7.37064 51.2582 7.71096C50.9179 8.05129 50.7267 8.51287 50.7267 8.99416V28.0772C50.7268 28.2398 50.6948 28.401 50.6326 28.5513C50.5704 28.7016 50.4792 28.8382 50.3642 28.9532C50.2491 29.0683 50.1125 29.1595 49.9622 29.2217C49.8119 29.2839 49.6508 29.3158 49.4881 29.3157H48.7395C48.2582 29.3157 47.7966 29.5069 47.4563 29.8472C47.1159 30.1876 46.9247 30.6492 46.9247 31.1304C46.9247 31.6117 47.1159 32.0733 47.4563 32.4136C47.7966 32.754 48.2582 32.9452 48.7395 32.9452H49.4881C50.1274 32.9458 50.7606 32.8203 51.3514 32.5759C51.9421 32.3315 52.4789 31.973 52.931 31.521C53.3831 31.0689 53.7415 30.5321 53.9859 29.9413C54.2303 29.3506 54.3558 28.7174 54.3552 28.0781V8.99508C54.3555 8.7567 54.3089 8.52059 54.2179 8.30026C54.1269 8.07994 53.9933 7.87972 53.8249 7.71107C53.6564 7.54243 53.4563 7.40866 53.2361 7.31744C53.0158 7.22622 52.7798 7.17932 52.5414 7.17944Z" fill="#E53E6A"/>
<path d="M52.5414 4.69295C53.8218 4.69295 54.8598 3.65497 54.8598 2.37455C54.8598 1.09414 53.8218 0.0561523 52.5414 0.0561523C51.261 0.0561523 50.223 1.09414 50.223 2.37455C50.223 3.65497 51.261 4.69295 52.5414 4.69295Z" fill="#E53E6A"/>
<path d="M59.6076 7.17944C59.1263 7.17944 58.6647 7.37064 58.3244 7.71096C57.984 8.05129 57.7928 8.51287 57.7928 8.99416V23.9486C57.7928 24.4299 57.984 24.8915 58.3244 25.2318C58.6647 25.5722 59.1263 25.7633 59.6076 25.7633C60.0889 25.7633 60.5504 25.5722 60.8908 25.2318C61.2311 24.8915 61.4223 24.4299 61.4223 23.9486V8.99416C61.4224 8.75582 61.3755 8.51978 61.2844 8.29956C61.1932 8.07933 61.0596 7.87923 60.891 7.71069C60.7225 7.54216 60.5224 7.40849 60.3022 7.31734C60.0819 7.22618 59.8459 7.17932 59.6076 7.17944Z" fill="#E53E6A"/>
<path d="M59.6076 0.0561523C58.9928 0.0561523 58.4031 0.300412 57.9683 0.735196C57.5335 1.16998 57.2892 1.75967 57.2892 2.37455C57.2892 2.98943 57.5335 3.57912 57.9683 4.01391C58.4031 4.44869 58.9928 4.69295 59.6076 4.69295C60.2225 4.69295 60.8122 4.44869 61.247 4.01391C61.6818 3.57912 61.926 2.98943 61.926 2.37455C61.926 1.75967 61.6818 1.16998 61.247 0.735196C60.8122 0.300412 60.2225 0.0561523 59.6076 0.0561523V0.0561523Z" fill="#E53E6A"/>
<path d="M124.914 15.413C124.444 11.1569 121.012 7.72014 116.76 7.2394C115.204 7.05666 113.626 7.27132 112.175 7.86332C110.723 8.45532 109.446 9.40537 108.461 10.6248V3.96226C108.461 3.82611 108.434 3.6913 108.382 3.56552C108.33 3.43974 108.254 3.32545 108.157 3.22919C108.061 3.13292 107.947 3.05655 107.821 3.00445C107.695 2.95235 107.56 2.92554 107.424 2.92554C107.288 2.92554 107.153 2.95235 107.027 3.00445C106.902 3.05655 106.787 3.13292 106.691 3.22919C106.595 3.32545 106.519 3.43974 106.466 3.56552C106.414 3.6913 106.388 3.82611 106.388 3.96226V16.4708C106.388 17.7352 106.647 18.9861 107.148 20.147C107.65 21.3078 108.382 22.3542 109.302 23.2221C110.221 24.09 111.308 24.7611 112.496 25.1943C113.684 25.6276 114.948 25.8139 116.21 25.7418C117.472 25.6697 118.707 25.3408 119.838 24.7751C120.968 24.2095 121.972 23.419 122.787 22.4521C123.601 21.4852 124.21 20.3622 124.576 19.1519C124.942 17.9415 125.057 16.6693 124.914 15.413ZM122.838 17.4121C122.663 18.7486 122.117 20.0093 121.262 21.0515C120.407 22.0938 119.277 22.8759 118.001 23.3094C116.724 23.7429 115.352 23.8104 114.039 23.5044C112.727 23.1984 111.526 22.5311 110.572 21.5779C109.619 20.6247 108.952 19.4237 108.646 18.1109C108.34 16.7981 108.407 15.4259 108.841 14.1495C109.274 12.8731 110.056 11.7435 111.099 10.8885C112.141 10.0336 113.402 9.48747 114.738 9.31192C115.835 9.17168 116.95 9.28463 117.997 9.64211C119.043 9.9996 119.994 10.5921 120.776 11.3742C121.558 12.1562 122.151 13.1071 122.508 14.1537C122.866 15.2004 122.979 16.315 122.838 17.4121Z" fill="#E53E6A"/>
<path d="M101.969 7.17847C101.694 7.17847 101.43 7.2877 101.236 7.48212C101.042 7.67655 100.932 7.94024 100.932 8.2152V16.8255C100.932 20.4136 98.18 23.5054 94.5974 23.6816C93.6944 23.7262 92.7918 23.587 91.9442 23.2724C91.0966 22.9578 90.3217 22.4743 89.6665 21.8514C89.0113 21.2284 88.4894 20.4789 88.1324 19.6483C87.7755 18.8176 87.5909 17.9232 87.5899 17.0191V8.21153C87.5899 7.93657 87.4807 7.67288 87.2862 7.47845C87.0918 7.28403 86.8281 7.1748 86.5532 7.1748C86.2782 7.1748 86.0145 7.28403 85.8201 7.47845C85.6257 7.67288 85.5164 7.93657 85.5164 8.21153V17.0191C85.5157 18.8101 86.0652 20.5581 87.0906 22.0266C88.116 23.495 89.5679 24.6129 91.2496 25.2291C92.9313 25.8452 94.7617 25.9298 96.4931 25.4713C98.2245 25.0129 99.7732 24.0336 100.93 22.666V24.7266C100.93 24.8627 100.956 24.9975 101.009 25.1233C101.061 25.2491 101.137 25.3634 101.233 25.4596C101.33 25.5559 101.444 25.6323 101.57 25.6844C101.695 25.7365 101.83 25.7633 101.966 25.7633C102.103 25.7633 102.237 25.7365 102.363 25.6844C102.489 25.6323 102.603 25.5559 102.699 25.4596C102.796 25.3634 102.872 25.2491 102.924 25.1233C102.976 24.9975 103.003 24.8627 103.003 24.7266V8.21244C103.003 7.93837 102.894 7.67565 102.7 7.48185C102.506 7.28805 102.243 7.17896 101.969 7.17847Z" fill="#E53E6A"/>
<path d="M46.9255 16.4715C46.9331 14.3636 46.2265 12.3152 44.9208 10.6603C43.615 9.0055 41.7872 7.84177 39.7353 7.35888C37.6835 6.87598 35.5285 7.10241 33.6218 8.00124C31.7151 8.90007 30.1691 10.4183 29.2358 12.3084C28.3026 14.1985 28.0371 16.349 28.4827 18.4093C28.9283 20.4696 30.0587 22.3182 31.6896 23.6537C33.3205 24.9893 35.3557 25.7329 37.4634 25.7635C39.5712 25.7941 41.6271 25.1098 43.2961 23.8221V23.9496C43.2961 24.4309 43.4873 24.8925 43.8276 25.2328C44.1679 25.5732 44.6295 25.7644 45.1108 25.7644C45.5921 25.7644 46.0537 25.5732 46.394 25.2328C46.7343 24.8925 46.9255 24.4309 46.9255 23.9496V16.4715ZM37.6326 22.1349C36.5125 22.1349 35.4175 21.8028 34.4862 21.1805C33.5548 20.5582 32.8289 19.6737 32.4003 18.6388C31.9716 17.6039 31.8595 16.4652 32.078 15.3666C32.2965 14.268 32.8359 13.2589 33.628 12.4668C34.42 11.6748 35.4291 11.1354 36.5277 10.9169C37.6263 10.6984 38.7651 10.8105 39.7999 11.2392C40.8348 11.6678 41.7193 12.3937 42.3416 13.3251C42.9639 14.2564 43.2961 15.3514 43.2961 16.4715C43.2941 17.9729 42.6968 19.4123 41.6351 20.474C40.5735 21.5357 39.1341 22.133 37.6326 22.1349Z" fill="#E53E6A"/>
</svg>
