<svg width="149" height="45" viewBox="0 0 149 45" fill="none" xmlns="http://www.w3.org/2000/svg">
<g clip-path="url(#clip0_45_29)">
<path d="M143.388 44.6857H5.93724C2.85545 44.6857 0.438721 42.2631 0.438721 39.1872V6.19612C0.438721 3.12027 2.85545 0.697601 5.93724 0.697601H143.388C146.47 0.697601 148.887 3.11434 148.887 6.19612V39.1872C148.887 42.2631 146.47 44.6857 143.388 44.6857Z" fill="black"/>
<path d="M143.685 0.69165H69.7462L98.7054 44.6917H143.685C146.547 44.6917 148.887 42.364 148.887 39.496V5.89327C148.887 3.02525 146.547 0.69165 143.685 0.69165Z" fill="url(#paint0_linear_45_29)"/>
<path d="M143.388 1.57641C145.918 1.57641 148.008 3.66656 148.008 6.19612V39.1872C148.008 41.7168 145.918 43.8069 143.388 43.8069H5.93724C3.40768 43.8069 1.31753 41.7168 1.31753 39.1872V6.19612C1.31753 3.66656 3.40768 1.57641 5.93724 1.57641H143.388ZM143.388 0.697601H5.93724C2.85545 0.697601 0.438721 3.22716 0.438721 6.19612V39.1872C0.438721 42.269 2.85545 44.6857 5.93724 44.6857H143.388C146.47 44.6857 148.887 42.269 148.887 39.1872V6.19612C148.887 3.22716 146.47 0.697601 143.388 0.697601Z" fill="#A6A6A6"/>
<path d="M75.3219 24.669C72.6854 24.669 70.5953 26.6463 70.5953 29.3956C70.5953 32.032 72.6854 34.1222 75.3219 34.1222C77.9583 34.1222 80.0484 32.1448 80.0484 29.3956C80.0484 26.5394 77.9642 24.669 75.3219 24.669ZM75.3219 32.1508C73.8908 32.1508 72.6854 30.9394 72.6854 29.2946C72.6854 27.6498 73.8967 26.4385 75.3219 26.4385C76.747 26.4385 77.9583 27.537 77.9583 29.2946C77.9642 30.9394 76.7529 32.1508 75.3219 32.1508ZM65.0968 24.669C62.4603 24.669 60.3702 26.6463 60.3702 29.3956C60.3702 32.032 62.4603 34.1222 65.0968 34.1222C67.7332 34.1222 69.8233 32.1448 69.8233 29.3956C69.8233 26.5394 67.7332 24.669 65.0968 24.669ZM65.0968 32.1508C63.6657 32.1508 62.4603 30.9394 62.4603 29.2946C62.4603 27.6498 63.6717 26.4385 65.0968 26.4385C66.5278 26.4385 67.7332 27.537 67.7332 29.2946C67.7332 30.9394 66.5278 32.1508 65.0968 32.1508ZM52.8884 26.1V28.0774H57.6209C57.5081 29.1759 57.0687 30.0547 56.5224 30.6069C55.8633 31.266 54.7648 32.0379 52.8943 32.0379C49.9254 32.0379 47.7283 29.7281 47.7283 26.7591C47.7283 23.7902 50.0382 21.4803 52.8943 21.4803C54.4322 21.4803 55.6436 22.1394 56.5224 22.9114L57.9534 21.4803C56.7421 20.3818 55.2042 19.503 53.0071 19.503C49.0465 19.503 45.6382 22.8045 45.6382 26.7591C45.6382 30.7138 49.0465 34.0153 53.0071 34.0153C55.2042 34.0153 56.748 33.3562 58.0663 31.9251C59.3845 30.6069 59.8239 28.7365 59.8239 27.3054C59.8239 26.866 59.8239 26.4266 59.7111 26.0941L52.8884 26.1ZM102.814 27.6379C102.375 26.5394 101.277 24.669 98.8538 24.669C96.4371 24.669 94.4538 26.5394 94.4538 29.3956C94.4538 32.032 96.4312 34.1222 99.0735 34.1222C101.164 34.1222 102.482 32.8039 102.921 32.032L101.383 30.9335C100.831 31.7054 100.172 32.2517 99.0735 32.2517C97.975 32.2517 97.3159 31.8123 96.7637 30.8207L103.034 28.1842L102.814 27.6379ZM96.4371 29.1818C96.4371 27.4242 97.8681 26.4325 98.8538 26.4325C99.6258 26.4325 100.392 26.872 100.611 27.4242L96.4371 29.1818ZM91.2652 33.6887H93.3553V19.9424H91.2652V33.6887ZM87.9696 25.6606C87.4174 25.1084 86.5386 24.5621 85.4401 24.5621C83.1302 24.5621 80.9332 26.6522 80.9332 29.2887C80.9332 31.9251 83.0233 33.9084 85.4401 33.9084C86.5386 33.9084 87.4174 33.3562 87.8568 32.8099H87.9696V33.469C87.9696 35.2266 86.978 36.2182 85.4401 36.2182C84.2287 36.2182 83.3499 35.3394 83.1302 34.5675L81.3726 35.3394C81.9248 36.5508 83.243 38.0887 85.5529 38.0887C87.9696 38.0887 89.9529 36.6576 89.9529 33.2493V24.8887H87.9756L87.9696 25.6606ZM85.547 32.1508C84.1159 32.1508 82.9105 30.9394 82.9105 29.2946C82.9105 27.6498 84.1219 26.4385 85.547 26.4385C86.9721 26.4385 88.0765 27.6498 88.0765 29.2946C88.0765 30.9394 86.978 32.1508 85.547 32.1508ZM112.38 19.9424H107.434V33.6887H109.524V28.5227H112.38C114.69 28.5227 116.887 26.872 116.887 24.2355C116.887 21.5991 114.69 19.9424 112.38 19.9424ZM112.487 26.5394H109.518V21.8128H112.487C114.025 21.8128 114.904 23.1311 114.904 24.1227C114.797 25.3281 113.918 26.5394 112.487 26.5394ZM125.135 24.5621C123.597 24.5621 122.053 25.2212 121.507 26.6522L123.377 27.4242C123.817 26.6522 124.476 26.4325 125.248 26.4325C126.346 26.4325 127.338 27.0917 127.445 28.1902V28.303C127.112 28.0833 126.234 27.7508 125.355 27.7508C123.377 27.7508 121.394 28.8493 121.394 30.8325C121.394 32.703 123.045 33.9143 124.803 33.9143C126.234 33.9143 126.893 33.2552 127.439 32.5961H127.552V33.6946H129.529V28.4158C129.315 25.9931 127.445 24.5621 125.135 24.5621ZM124.915 32.1508C124.256 32.1508 123.265 31.8182 123.265 30.9394C123.265 29.8409 124.476 29.5084 125.462 29.5084C126.34 29.5084 126.78 29.7281 127.332 29.9478C127.112 31.266 126.014 32.1508 124.915 32.1508ZM136.459 24.8887L134.149 30.8266H134.036L131.619 24.8887H129.422L133.05 33.2433L130.96 37.863H133.05L138.656 24.8887H136.459ZM117.986 33.6887H120.076V19.9424H117.986V33.6887Z" fill="white"/>
<path d="M52.5618 11.9143C52.5618 12.7931 52.3421 13.5651 51.7899 14.1114C51.1307 14.7705 50.3588 15.103 49.3731 15.103C48.3815 15.103 47.6155 14.7705 46.9564 14.1114C46.2973 13.4522 45.9648 12.6803 45.9648 11.6946C45.9648 10.7089 46.2973 9.937 46.9564 9.27789C47.6155 8.61878 48.3874 8.28625 49.3731 8.28625C49.8125 8.28625 50.2519 8.39908 50.6913 8.61878C51.1307 8.83848 51.4633 9.05818 51.683 9.39071L51.1307 9.94294C50.6913 9.39071 50.1391 9.17101 49.3731 9.17101C48.714 9.17101 48.0549 9.39071 47.6155 9.94294C47.0633 10.3823 46.8436 11.0415 46.8436 11.8134C46.8436 12.5853 47.0633 13.2444 47.6155 13.6838C48.1677 14.1232 48.714 14.4558 49.3731 14.4558C50.145 14.4558 50.6913 14.2361 51.2436 13.6838C51.5761 13.3513 51.7958 12.9119 51.7958 12.3656H49.3791V11.4868H52.5677L52.5618 11.9143ZM57.6209 9.16507H54.6519V11.2552H57.4012V12.0271H54.6519V14.1173H57.6209V14.9961H53.7731V8.39908H57.6209V9.16507ZM61.249 14.9961H60.3701V9.17101H58.4997V8.39908H63.1194V9.17101H61.249V14.9961ZM66.3081 14.9961V8.39908H67.1869V14.9961H66.3081ZM70.9218 14.9961H70.043V9.17101H68.1726V8.39908H72.6795V9.17101H70.809V14.9961H70.9218ZM81.3726 14.1173C80.7135 14.7764 79.9415 15.1089 78.9558 15.1089C77.9642 15.1089 77.1982 14.7764 76.5391 14.1173C75.88 13.4582 75.5475 12.6863 75.5475 11.7006C75.5475 10.7149 75.88 9.94293 76.5391 9.28383C77.1982 8.62472 77.9701 8.29219 78.9558 8.29219C79.9475 8.29219 80.7135 8.62472 81.3726 9.28383C82.0317 9.94293 82.3642 10.7149 82.3642 11.7006C82.3642 12.6863 82.0317 13.4522 81.3726 14.1173ZM77.1923 13.5651C77.6317 14.0045 78.2908 14.337 78.9499 14.337C79.609 14.337 80.2681 14.1173 80.7075 13.5651C81.1469 13.1257 81.4795 12.4666 81.4795 11.6946C81.4795 10.9227 81.2598 10.2636 80.7075 9.82418C80.2681 9.38477 79.609 9.05225 78.9499 9.05225C78.2908 9.05225 77.6317 9.27195 77.1923 9.82418C76.7529 10.2636 76.4203 10.9227 76.4203 11.6946C76.4203 12.4666 76.6401 13.1257 77.1923 13.5651ZM83.5696 14.9961V8.39908H84.5612L87.7499 13.5651V8.39908H88.6287V14.9961H87.7499L84.3415 9.61041V14.9961H83.5696Z" fill="white" stroke="white" stroke-width="0.251852" stroke-miterlimit="185.185"/>
<path d="M11.8752 8.94537C11.5426 9.2779 11.4358 9.82419 11.4358 10.4833V34.7872C11.4358 35.4463 11.6555 35.9985 11.988 36.3251L12.1008 36.438L25.7343 22.8045V22.5848L11.8752 8.94537Z" fill="url(#paint1_linear_45_29)"/>
<path d="M30.1283 27.4182L25.6215 22.9114V22.5788L30.1283 18.072L30.2412 18.1848L35.6269 21.2666C37.1648 22.1454 37.1648 23.5764 35.6269 24.4552L30.1283 27.4182Z" fill="url(#paint2_linear_45_29)"/>
<path d="M30.2411 27.3114L25.6214 22.6917L11.8752 36.4379C12.4274 36.9902 13.1934 36.9902 14.185 36.5508L30.2411 27.3114Z" fill="url(#paint3_linear_45_29)"/>
<path d="M30.2411 18.072L14.185 8.94537C13.1934 8.39314 12.4274 8.50596 11.8752 9.05819L25.6214 22.6917L30.2411 18.072Z" fill="url(#paint4_linear_45_29)"/>
<path opacity="0.2" d="M30.1283 27.1985L14.185 36.2183C13.3062 36.7705 12.5343 36.6577 11.988 36.2183L11.8752 36.3311L11.988 36.4439C12.5402 36.8833 13.3062 36.9961 14.185 36.4439L30.1283 27.1985Z" fill="black"/>
<path opacity="0.12" d="M11.8752 36.2182C11.5426 35.8857 11.4358 35.3394 11.4358 34.6803V34.7931C11.4358 35.4522 11.6555 36.0045 11.988 36.3311V36.2182H11.8752ZM35.6268 24.1227L30.1283 27.1985L30.2412 27.3114L35.6268 24.2296C36.3988 23.7902 36.7254 23.2379 36.7254 22.6917C36.7254 23.2439 36.286 23.6833 35.6268 24.1227Z" fill="black"/>
<path opacity="0.25" d="M14.185 9.05819L35.6268 21.2666C36.286 21.706 36.7254 22.1454 36.7254 22.6976C36.7254 22.1454 36.3928 21.5991 35.6268 21.1597L14.185 8.94537C12.6471 8.06655 11.4358 8.72566 11.4358 10.4833V10.5961C11.4358 8.94537 12.6471 8.17937 14.185 9.05819Z" fill="white"/>
</g>
<defs>
<linearGradient id="paint0_linear_45_29" x1="109.316" y1="44.8082" x2="109.316" y2="5.15007" gradientUnits="userSpaceOnUse">
<stop stop-color="#1A1A1A" stop-opacity="0.1"/>
<stop offset="0.123" stop-color="#212121" stop-opacity="0.151"/>
<stop offset="0.308" stop-color="#353535" stop-opacity="0.227"/>
<stop offset="0.532" stop-color="#575757" stop-opacity="0.318"/>
<stop offset="0.783" stop-color="#858585" stop-opacity="0.421"/>
<stop offset="1" stop-color="#B3B3B3" stop-opacity="0.51"/>
</linearGradient>
<linearGradient id="paint1_linear_45_29" x1="24.4049" y1="10.271" x2="5.95004" y2="28.7246" gradientUnits="userSpaceOnUse">
<stop stop-color="#00A0FF"/>
<stop offset="0.007" stop-color="#00A1FF"/>
<stop offset="0.26" stop-color="#00BEFF"/>
<stop offset="0.512" stop-color="#00D2FF"/>
<stop offset="0.76" stop-color="#00DFFF"/>
<stop offset="1" stop-color="#00E3FF"/>
</linearGradient>
<linearGradient id="paint2_linear_45_29" x1="37.6428" y1="22.7457" x2="11.0354" y2="22.7457" gradientUnits="userSpaceOnUse">
<stop stop-color="#FFE000"/>
<stop offset="0.409" stop-color="#FFBD00"/>
<stop offset="0.775" stop-color="#FFA500"/>
<stop offset="1" stop-color="#FF9C00"/>
</linearGradient>
<linearGradient id="paint3_linear_45_29" x1="27.7259" y1="25.2027" x2="2.70088" y2="50.2277" gradientUnits="userSpaceOnUse">
<stop stop-color="#FF3A44"/>
<stop offset="1" stop-color="#C31162"/>
</linearGradient>
<linearGradient id="paint4_linear_45_29" x1="8.42328" y1="0.930957" x2="19.5987" y2="12.1063" gradientUnits="userSpaceOnUse">
<stop stop-color="#32A071"/>
<stop offset="0.069" stop-color="#2DA771"/>
<stop offset="0.476" stop-color="#15CF74"/>
<stop offset="0.801" stop-color="#06E775"/>
<stop offset="1" stop-color="#00F076"/>
</linearGradient>
<clipPath id="clip0_45_29">
<rect width="148.448" height="44" fill="white" transform="translate(0.438721 0.69165)"/>
</clipPath>
</defs>
</svg>
